<svg width="128" height="128" viewBox="0 0 128 128" fill="none" xmlns="http://www.w3.org/2000/svg">
<rect width="128" height="128" fill="#141414"/>
<path d="M78.4719 45.0053C78.1801 45.0053 76.1065 45.4065 59.1053 48.5306C58.9725 48.5306 58.3369 48.6936 57.9876 48.9799C57.6449 49.2502 57.4623 49.6109 57.3951 50.0356C57.1114 51.1473 58.0153 71.1876 57.1741 72.1271C56.8068 72.5277 56.1594 72.6434 55.6593 72.7335C52.6683 73.2483 50.6771 73.5178 49.2603 74.8418C46.8187 77.1792 48.0838 81.258 51.6847 81.9207C53.0343 82.1653 55.5688 81.8333 56.9692 81.0724C58.2023 80.4498 59.1372 79.3305 59.4865 77.8424C59.7865 76.5667 59.6946 77.4486 59.6946 58.2583C59.6946 57.3172 59.963 57.0717 60.8124 56.8915C60.8124 56.8915 75.6039 54.1779 76.2877 54.0637C77.2453 53.8996 77.7033 54.1538 77.7033 55.0691C77.7033 68.0788 77.8711 67.8245 77.3382 68.4132C76.9709 68.8138 76.5348 68.9264 76.0347 69.0165C73.0421 69.5313 71.2351 69.6217 69.8183 70.9457C68.026 72.6622 68.0502 75.3845 70.0425 77.0286C71.5265 78.1386 73.1925 78.4119 75.234 78.0435C77.5592 77.6172 79.2937 76.3569 79.8267 74.116C80.0677 73.0945 79.9902 74.6064 79.9804 46.4443C79.9804 45.4952 79.4296 44.9393 78.4719 45.0053Z" fill="white"/>
</svg>
