<svg width="64" height="64" viewBox="0 0 64 64" fill="none" xmlns="http://www.w3.org/2000/svg">
<rect width="64" height="64" fill="#141414"/>
<g clip-path="url(#clip0_86_8)">
<path fill-rule="evenodd" clip-rule="evenodd" d="M32 18C28.134 18 25 21.134 25 25C25 28.866 28.134 32 32 32C35.866 32 39 28.866 39 25C39 21.134 35.866 18 32 18ZM27 25C27 22.239 29.239 20 32 20C34.761 20 37 22.239 37 25C37 27.761 34.761 30 32 30C29.239 30 27 27.761 27 25Z" fill="white"/>
<path fill-rule="evenodd" clip-rule="evenodd" d="M23.6042 34C22.2842 34 20.9582 34.661 20.3182 35.952C19.7942 37.008 19.1532 38.578 19.0132 40.202C18.9102 41.404 19.4102 42.642 20.5162 43.33C22.2672 44.417 25.8752 46 32.0002 46C38.1252 46 41.7332 44.417 43.4842 43.33C44.5902 42.642 45.0902 41.404 44.9872 40.202C44.8472 38.578 44.2062 37.008 43.6822 35.952C43.0422 34.661 41.7162 34 40.3962 34H23.6042ZM22.1102 36.84C22.3602 36.335 22.9192 36 23.6042 36H40.3962C41.0812 36 41.6402 36.335 41.8902 36.84C42.3702 37.808 42.8862 39.115 42.9942 40.373C43.0422 40.932 42.8092 41.394 42.4292 41.631C41.0022 42.517 37.7612 44 32.0002 44C26.2392 44 22.9982 42.517 21.5712 41.631C21.1912 41.394 20.9582 40.932 21.0062 40.373C21.1142 39.115 21.6302 37.808 22.1102 36.84Z" fill="white"/>
</g>
<defs>
<clipPath id="clip0_86_8">
<rect width="26" height="28" fill="white" transform="translate(19 18)"/>
</clipPath>
</defs>
</svg>
