<svg viewBox="0 0 24 24" fill="none" xmlns="http://www.w3.org/2000/svg">
<path d="M12 4.59511C10.9104 3.59321 9.48419 3.03716 8.00398 3.03711C7.22052 3.03793 6.44496 3.19367 5.72192 3.49538C4.99888 3.79709 4.34265 4.2388 3.79098 4.79511C1.43798 7.15811 1.43898 10.8541 3.79298 13.2071L11.125 20.5391C11.295 20.8381 11.623 21.0311 12 21.0311C12.1548 21.0296 12.3071 20.9918 12.4446 20.9208C12.5822 20.8498 12.7011 20.7475 12.792 20.6221L20.207 13.2071C22.561 10.8531 22.561 7.15811 20.205 4.79111C19.6536 4.23583 18.9979 3.79501 18.2756 3.49399C17.5532 3.19298 16.7785 3.03771 15.996 3.03711C14.5158 3.03735 13.0897 3.59338 12 4.59511ZM18.791 6.20511C20.354 7.77611 20.355 10.2301 18.793 11.7931L12 18.5861L5.20698 11.7931C3.64498 10.2301 3.64598 7.77611 5.20498 6.20911C5.96498 5.45311 6.95898 5.03711 8.00398 5.03711C9.04898 5.03711 10.039 5.45311 10.793 6.20711L11.293 6.70711C11.3858 6.80005 11.496 6.87379 11.6173 6.9241C11.7386 6.97441 11.8686 7.00031 12 7.00031C12.1313 7.00031 12.2614 6.97441 12.3827 6.9241C12.504 6.87379 12.6142 6.80005 12.707 6.70711L13.207 6.20711C14.719 4.69811 17.281 4.70211 18.791 6.20511Z" fill="#FFD7B1"/>
<path d="M12.7954 17.5991C12.8413 17.489 13.0244 17.1404 13.2828 16.6837C13.5372 16.234 13.8184 15.9489 13.9653 15.8113C14.1969 15.5943 14.4538 15.2678 14.6932 14.9457C14.9909 14.5452 15.045 14.3541 15.1188 14.2199C15.1888 14.0929 15.1927 13.9757 15.2572 13.8189C15.3216 13.6624 15.414 13.5054 15.4785 13.3946C15.5118 13.3373 15.5432 13.2838 15.5525 13.2606C15.5939 13.1567 15.3144 13.6592 15.1931 13.864C15.1197 13.9881 15.0455 14.0852 14.9581 14.196C14.8626 14.317 14.7324 14.4631 14.6125 14.5695C14.4537 14.7103 14.2815 14.8869 14.0502 15.1085C13.9505 15.204 13.8839 15.321 13.833 15.3719C13.723 15.4819 14.1315 15.101 14.408 14.8888C14.5321 14.7936 14.6571 14.649 14.8457 14.5064C15.0359 14.3625 15.2107 14.2523 15.5403 13.9867C15.8044 13.7739 16.2716 13.4108 16.5297 13.2044C16.9506 12.8679 17.2205 12.6207 17.4925 12.3945C17.7292 12.1978 17.8114 12.0945 17.9127 12.0021C18.0671 11.8615 18.1987 11.6796 18.2725 11.5688C18.3493 11.4536 18.4476 11.3476 18.5215 11.2368C18.5983 11.1216 18.6783 11.0156 18.8162 10.8452C18.9544 10.6745 19.0192 10.5271 19.1438 10.338C19.2246 10.2153 19.2593 10.0751 19.3237 9.95058C19.4117 9.78064 19.407 9.66011 19.4529 9.54932C19.4959 9.44554 19.49 9.32814 19.513 9.19439C19.5342 9.07081 19.5453 8.8313 19.5224 8.65951C19.5006 8.49652 19.4347 8.29573 19.4026 8.16156C19.3653 8.00552 19.3152 7.8437 19.2918 7.67302C19.2688 7.50532 19.1674 7.34575 19.103 7.21642C19.0256 7.06114 18.9555 6.94905 18.9046 6.83826C18.8501 6.71958 18.7436 6.59883 18.6558 6.47863C18.5653 6.35478 18.4393 6.27572 18.3285 6.17433C18.2176 6.07281 18.1074 5.99908 17.992 5.92065C17.8447 5.82053 17.7201 5.7407 17.6093 5.68081C17.4798 5.6108 16.8121 5.59297 16.4015 5.6205C16.2247 5.63235 16.0049 5.66656 15.885 5.68053C15.708 5.70115 15.4527 5.73129 15.2534 5.75882C15.0891 5.78151 14.9631 5.83254 14.8108 5.89243C14.6554 5.95354 14.5205 5.97086 14.3773 6.03075C14.2498 6.08412 14.1238 6.16451 13.9855 6.23353C13.8386 6.30679 13.7365 6.37641 13.5982 6.46867C13.4669 6.55623 13.3215 6.57947 13.1832 6.63479C13.0534 6.68672 12.8795 6.70838 12.6945 6.73175C12.5553 6.74936 12.4086 6.77311 12.2933 6.78708C12.1405 6.80558 11.9389 6.8467 11.6116 6.86094C11.4116 6.86965 11.2467 6.81959 11.1359 6.80105C11.0175 6.78125 10.9148 6.71834 10.804 6.64448C10.6932 6.57061 10.5828 6.51529 10.472 6.45539C10.3648 6.39744 10.2508 6.3493 10.14 6.33077C10.0217 6.31096 9.91887 6.26631 9.80351 6.20642C9.68123 6.14293 9.55924 6.1374 9.42092 6.0865C9.27918 6.03433 9.17195 6.00793 9.06116 5.95744C8.95609 5.90957 8.83998 5.90668 8.72463 5.86975C8.57732 5.82259 8.42503 5.82369 7.46938 5.82798C7.07979 5.82973 6.94058 5.96146 6.82039 6.01236C6.70435 6.0615 6.54444 6.16395 6.40086 6.28415C6.24109 6.41792 6.04594 6.53299 5.93514 6.61626C5.81856 6.70388 5.68631 6.79137 5.55255 6.89276C5.42501 6.98944 5.32668 7.11393 5.16996 7.26138C5.01625 7.406 5.01297 7.59307 4.94824 7.79156C4.90908 7.9116 4.91117 8.13639 4.87908 8.3357C4.85213 8.50307 4.80992 8.60778 4.79595 8.71857C4.78041 8.84177 4.74518 9.16825 4.72222 9.3962C4.70417 9.57544 4.76344 9.68667 4.79581 9.79746C4.84059 9.95075 4.90176 10.1752 5.00758 10.4423C5.0942 10.661 5.19666 10.9033 5.28892 11.0928C5.35618 11.231 5.39971 11.3465 5.46417 11.4573C5.52869 11.5682 5.58395 11.6785 5.63942 11.7893C5.70142 11.9131 5.88715 12.1017 6.02201 12.2641C6.15576 12.4252 6.33973 12.5914 6.44153 12.7022C6.57497 12.8474 6.76409 12.951 6.87488 13.0388C6.99509 13.1341 7.09606 13.237 7.20685 13.3523C7.29213 13.4409 7.41862 13.5502 7.56164 13.6703C7.80926 13.8781 7.92597 14.0022 7.99084 14.1039C8.08969 14.2588 8.32267 14.4172 8.44702 14.5418C8.59583 14.6909 8.98494 14.9788 9.19394 15.1136C9.32662 15.1992 9.53877 15.3389 9.69659 15.4824C9.7933 15.5703 9.91777 15.6255 10.2352 15.8966C10.3902 16.029 10.4987 16.16 10.6049 16.2478C10.7256 16.3476 10.8401 16.492 10.946 16.644C11.0976 16.8614 11.2456 16.9899 11.3059 17.1007C11.3684 17.2154 11.4669 17.3219 11.5272 17.4327C11.5875 17.5434 11.6423 17.6538 11.6978 17.7967C11.7665 17.9738 11.8177 18.0782 11.8591 18.1427C11.8787 18.1732 11.9096 18.1889 11.9237 18.1024C12.0091 17.5789 11.9101 17.2782 11.8872 16.905C11.8554 16.3895 11.8733 16.0043 11.8595 15.6156C11.8473 15.2727 11.8548 14.6335 11.8685 14.2358C11.8869 13.7 11.9378 13.3684 11.9423 13.0506C11.9489 12.5936 11.9746 12.0671 11.9884 11.7236C11.9989 11.4623 11.9931 11.0239 11.9977 10.7708C12.0022 10.5177 12.0114 10.4629 12.0161 9.96455C12.0208 9.46619 12.0208 8.52589 12.0071 8.02324C11.9934 7.52059 11.966 7.48407 11.9336 7.4607C11.8719 7.4161 11.7906 7.40053 11.7216 7.38656C11.5867 7.35926 11.5781 7.58422 11.5322 7.79142C11.4889 7.98694 11.4675 8.22021 11.399 8.92895C11.3384 9.55635 11.1936 10.7241 11.1231 11.7186C11.0525 12.7131 11.0525 13.4982 11.0617 13.9163C11.0708 14.3345 11.0891 14.3619 11.0985 14.3577C11.1079 14.3536 11.1079 14.317 10.9846 13.5542C10.8614 12.7914 10.6149 11.3033 10.4925 10.0164C10.3701 8.7295 10.3792 7.68878 10.393 7.09332C10.4096 6.37865 10.4439 6.16561 10.4485 6.04099C10.449 6.02607 10.4716 6.29149 10.4579 6.72401C10.4514 6.92866 10.4168 7.10176 10.3525 8.35963C10.2882 9.61751 10.1878 11.9545 10.1406 13.1357C10.0934 14.3168 10.1026 14.2711 10.0844 13.8459C10.0663 13.4207 10.0207 12.6174 9.81914 11.3317C9.61761 10.046 9.26158 8.30237 9.07817 7.38587C8.89476 6.46936 8.89476 6.43285 8.88563 6.44142C8.8765 6.45 8.85824 6.50477 8.8534 7.05335C8.84856 7.60192 8.85769 8.64263 8.94455 9.74476C9.03142 10.8469 9.19574 11.9789 9.29408 12.5894C9.39243 13.2 9.41982 13.2547 9.43393 13.2647C9.44803 13.2747 9.44803 13.2381 9.08744 11.923C8.72684 10.6079 8.00564 8.01522 7.62042 6.76177C7.2352 5.50832 7.20782 5.67265 7.19371 6.61086C7.1796 7.54908 7.1796 9.25622 7.21155 10.3319C7.2435 11.4076 7.30741 11.8002 7.35402 12.0572C7.42076 12.4251 7.45624 12.564 7.4608 12.5827C7.47411 12.6371 7.4839 12.3991 7.42456 11.768C7.37288 11.2182 7.24655 10.2056 7.1352 9.40519C7.02385 8.60473 6.92343 8.04786 6.85801 7.71991C6.77574 7.30754 6.73698 7.14298 6.73241 7.16912C6.71377 7.2759 6.71872 7.57868 6.74141 7.95297C6.76409 8.32727 6.81886 8.76546 6.87447 9.11444C6.96976 9.7125 7.06867 10.046 7.12386 10.2527C7.19973 10.5367 7.22552 10.7382 7.24862 10.734C7.28002 10.7284 7.24433 10.6112 7.13008 10.3177C7.01583 10.0242 6.79673 9.5312 6.56519 9.03989C6.33364 8.54858 6.09628 8.07387 5.96945 7.81106C5.84261 7.54825 5.83348 7.51174 5.82421 7.52031C5.77579 7.56512 5.79641 7.74965 5.93334 8.48619C6.05065 9.11716 6.34415 10.2543 6.52175 10.938C6.75069 11.8194 6.86589 12.0931 6.90269 12.2359C6.9185 12.2972 6.93948 12.333 6.94432 12.2833C6.94916 12.2337 6.94003 12.0967 6.82578 11.7158C6.71153 11.3349 6.49243 10.7141 6.2335 10.1341C5.97456 9.55416 5.68243 9.0338 5.53194 8.78856C5.38145 8.54332 5.38145 8.58897 5.39058 8.649C5.39971 8.70903 5.41797 8.78206 5.50041 8.97031C5.58284 9.15856 5.72891 9.45982 6.10998 10.0076C6.49105 10.5553 7.10269 11.3404 7.66427 11.9594C8.22585 12.5784 8.71882 13.0074 9.21012 13.4019C9.70143 13.7964 10.1761 14.1433 10.5165 14.3677C11.0331 14.7081 11.4014 14.7774 11.6639 14.7637C11.8309 14.755 11.9555 14.6122 12.4176 14.0176C12.8124 13.5095 13.5096 12.5648 13.9265 12.0211C14.3434 11.4773 14.453 11.3587 14.6737 11.0921C14.8945 10.8256 15.2231 10.4148 15.4061 10.1758C15.5891 9.93675 15.6165 9.88197 15.6352 9.87201C15.6691 9.85392 15.6633 10.0457 15.5855 10.4719C15.5274 10.7906 15.3891 11.3089 15.0814 12.1566C14.7736 13.0044 14.2898 14.1638 14.0268 14.7839C13.7639 15.4039 13.7365 15.4496 13.7315 15.4366C13.7265 15.4236 13.7448 15.3506 13.8044 15.1897C13.864 15.0288 13.9644 14.7823 14.4863 13.8794C15.0082 12.9764 15.9485 11.4245 16.4694 10.5337C16.9903 9.64296 17.0633 9.46038 17.101 9.35263C17.1386 9.24488 17.1386 9.21749 17.0199 9.3814C16.9012 9.5453 16.6639 9.90134 16.1445 10.4636C15.6251 11.0259 14.8309 11.7836 14.2209 12.4387C13.6109 13.0937 13.2092 13.6232 12.9612 14.0101C12.5844 14.5978 12.5464 14.9151 12.5738 15.0027C12.5865 15.0435 12.6559 15.0446 12.7115 15.0082C12.7671 14.9718 12.8219 14.8897 13.5987 13.9984C14.3755 13.107 15.8727 11.409 16.7718 10.3198C17.6708 9.23049 17.9264 8.80142 18.0673 8.55757C18.2324 8.27151 18.2543 8.18452 18.259 8.17484C18.3115 8.06664 18.1718 8.51483 18.0388 8.82259C17.9594 9.00622 17.8235 9.23077 17.4701 9.72263C17.1167 10.2145 16.5416 10.9631 16.2179 11.3989C15.8943 11.8348 15.8395 11.9352 15.8204 11.9641C15.8013 11.993 15.8196 11.9474 16.0709 11.472C16.3222 10.9965 16.8061 10.0928 17.0736 9.55416C17.4938 8.70802 17.4335 8.52589 17.4246 8.37831C17.4159 8.23287 17.0935 8.34995 16.6857 8.52824C16.3682 8.66707 15.8671 8.98954 14.9739 9.61944C14.0806 10.2493 12.8208 11.1988 12.1216 11.7153C11.4224 12.2317 11.322 12.2865 11.2794 12.2736C11.2368 12.2608 11.255 12.1786 11.5977 11.7301C11.9403 11.2815 12.6067 10.469 13.1782 9.83591C13.7498 9.20283 14.2062 8.77376 14.4733 8.50708C14.8183 8.1626 14.8793 8.00941 14.8657 7.94938C14.8598 7.92318 14.7883 7.95325 14.6048 8.11329C14.4214 8.27332 14.111 8.57458 13.481 9.04473C12.851 9.51487 11.9107 10.1448 12.0836 10.0356C12.2565 9.92651 13.5711 9.05925 14.6454 8.41164C15.7197 7.76403 16.5139 7.36235 16.9276 7.16912C17.3414 6.97589 17.3505 7.00328 17.3095 7.03564C17.1926 7.12811 16.9646 7.16953 16.059 7.30689C15.2734 7.42603 13.8206 7.60856 12.9131 7.75296C12.0056 7.89737 11.686 7.98866 11.4712 8.05851C11.152 8.16233 11.0251 8.24842 10.9837 8.30361C10.9649 8.32853 10.9695 8.3588 11.0471 8.36835C11.1247 8.37789 11.2799 8.36876 12.396 8.13127C13.5121 7.89377 15.5844 7.42819 16.5972 7.19291C17.61 6.95763 17.5004 6.96676 16.4946 7.19056C15.4887 7.41436 13.5899 7.85255 12.5888 8.09198C11.5878 8.33142 11.5422 8.3588 11.5369 8.37748C11.5317 8.39615 11.5682 8.40528 11.6144 8.40998C11.6606 8.41468 11.7154 8.41468 12.2731 8.25949C12.8308 8.1043 13.8897 7.79391 14.4216 7.63857C14.9534 7.48324 14.926 7.49237 14.8708 7.5199C14.8156 7.54742 14.7335 7.59307 14.2758 7.76721C13.8181 7.94136 12.9873 8.24261 12.4909 8.43889C11.9945 8.63516 11.8576 8.71733 11.7165 8.80198" stroke="#FFD7B1" stroke-width="2" stroke-linecap="round"/>
</svg>
